<svg xmlns="http://www.w3.org/2000/svg" viewBox="0 0 596.44 384.5"><defs><style>.cls-1{opacity:0.8;}.cls-2{fill:#c76e4b;}.cls-3,.cls-4{fill:#fff;}.cls-4{stroke:#000;stroke-miterlimit:10;}.cls-5{fill:#6c7e9c;}.cls-6{fill:none;}.cls-7{font-size:95.66px;font-family:Futura-Medium, Futura;font-weight:500;}.cls-8{letter-spacing:0.02em;}.cls-9{letter-spacing:0em;}.cls-10{fill:#d0f1ff;}</style></defs><title>Asset 2</title><g id="Layer_2" data-name="Layer 2"><g id="Layer_2-2" data-name="Layer 2"><g class="cls-1"><path class="cls-2" d="M594.57,384.5H0L.94,134.11l1.87-3.76c3.75,0,14.07-4.68,21.57,6.57,6.46,9.7,14.31-4.26,28.34-2.33A22.59,22.59,0,0,1,59,136.45c.32.15.66.3,1,.47,18.76,9.38,35.64,11.25,41.26,28.13a79.42,79.42,0,0,0,16.88,28.14c30,20.63,26.26,30,41.27,31.88s13.13,7.51,16.88,24.39c1.74,7.87,2.68,17,4.52,24.6,2.08,8.78,5.34,15.67,12.36,16.66,13.13,1.88,7.5,7.5,18.75,11.25s22.51,0,45-15,30,1.87,35.64-24.38c.45-2.07.91-3.89,1.42-5.5,4.93-15.57,13-10.88,23.37,1.84h0c2.25,2.75,4.61,5.89,7.07,9.28,15,20.63,15-11.25,24.38-3.75s11.26,26.26,26.26,18.76c14.39-7.19,47.72-16.11,60.36-33.35a26.19,26.19,0,0,0,1.54-2.29c11.25-18.76,20.63-33.76,45-37.51s20.63,3.75,39.39-16.88,11.25-18.76,37.51-22.51a57.82,57.82,0,0,0,21.78-7.37c6.82-4.05,10.16-8.1,12.41-8.22a12.34,12.34,0,0,1,1.41.57.06.06,0,0,0,0,0C598.32,159.43,594.57,384.5,594.57,384.5Z"/><path class="cls-3" d="M594.57,144.35v11.33a.06.06,0,0,1,0,0,12.34,12.34,0,0,0-1.41-.57c-2.25.12-5.59,4.17-12.41,8.22-6.57,3.75-44.36,3.58-55.54-2a119.24,119.24,0,0,0-33.76-11.25c-11.25-1.88-16.88,11.25-26.26,11.25s-15-9.38-45-11.25-33.76,15-43.14,5.63-24.39-7.51-41.27-15-16.88-1.87-41.26-7.5-45,5.63-56.27,5.63-11.25-5.63-26.26-1.88-31.88,0-46.89,7.5-26.25,5.63-48.76-3.75S59,136.45,59,136.45a22.59,22.59,0,0,0-6.32-1.86c-14-1.93-21.88,12-28.34,2.33-4.14-6.23-16.5-6.34-21.57-6.57v-1.87c1.2-.69,4.79-2,6-2.46,37.48-14,58.28-17.63,77.45-22.86,20.63-5.63,22.51,3.75,37.51,0S151.92,91.9,174.43,91.9s35.64-7.5,52.52-9.37,22.51-16.88,35.64-15,24.38-5.62,41.26,0,24.38,20.63,39.39,20.63,22.5,3.75,41.26,11.26,35.64-1.88,63.77,3.75,15,15,43.14,13.13S540.18,120,573.94,135C591.74,142.45,594.29,144,594.57,144.35Z"/><path class="cls-4" d="M594.57,144.42v-.07C594.64,144.42,594.57,144.42,594.57,144.42Z"/><path class="cls-5" d="M580.71,163.31a57.82,57.82,0,0,1-21.78,7.37c-26.26,3.75-18.75,1.88-37.51,22.51s-15,13.13-39.39,16.88-33.76,18.75-45,37.51a26.19,26.19,0,0,1-1.54,2.29c-5.05,1.37-21.53,5.83-34.1,9-14.85,3.72-82.55.17-84,.1h0C307,246.21,299,241.52,294,257.09c0,0-67.07,3.62-80.2,11.12s-33,5.85-33,5.85c-1.84-7.65-2.78-16.73-4.52-24.6-3.75-16.88-1.88-22.51-16.88-24.39s-11.26-11.25-41.27-31.88a79.42,79.42,0,0,1-16.88-28.14C95.66,148.17,78.78,146.3,60,136.92c-.32-.17-.66-.32-1-.47,0,0,34.74-14.54,57.25-5.16s33.76,11.26,48.76,3.75,31.89-3.75,46.89-7.5,15,1.88,26.26,1.88,31.89-11.26,56.27-5.63,24.38,0,41.26,7.5,31.89,5.63,41.27,15,13.13-7.5,43.14-5.63,35.63,11.25,45,11.25,15-13.12,26.26-11.25a119.55,119.55,0,0,1,33.76,11.25C536.35,157.51,574.14,167.06,580.71,163.31Z"/><path class="cls-6" d="M294,257.09c-.51,1.61-1,3.43-1.42,5.5C287,288.84,279.47,272,257,287s-33.76,18.75-45,15-5.62-9.37-18.75-11.25c-7-1-10.28-7.88-12.36-16.66,0,0,19.86,1.65,33-5.85S294,257.09,294,257.09Z"/><path class="cls-6" d="M435.48,249.87c-12.64,17.24-46,26.16-60.36,33.35-15,7.5-16.88-11.26-26.26-18.76s-9.37,24.38-24.38,3.75c-2.46-3.39-4.82-6.53-7.07-9.28,1.42.07,69.12,3.62,84-.1C414,255.7,430.43,251.24,435.48,249.87Z"/></g></g><g id="Layer_3" data-name="Layer 3"><text class="cls-7" transform="translate(39.52 225.07)">Changing<tspan x="0" y="114.79">Cape</tspan><tspan class="cls-8" x="234.66" y="114.79">r</tspan><tspan class="cls-9" x="271.88" y="114.79">naum</tspan></text><path class="cls-10" d="M596.44,0l-.93,160.36c-.29-.33-1.9-17.91-19.7-25.32-33.76-15-54.39-20.63-82.52-18.75s-15-7.5-43.14-13.13-45,3.75-63.77-3.75-26.26-11.26-41.27-11.26-22.51-15-39.39-20.63-28.13,1.88-41.26,0-18.76,13.13-35.64,15-30,9.37-52.51,9.37-35.64,7.51-50.64,11.26-16.88-5.63-37.52,0C69,108.39,48.18,112,10.71,126c-1.24.47-8.57,7.39-9.77,8.09L1.88,0Z"/></g></g></svg>